<svg width="24" height="24" viewBox="0 0 24 24" fill="none" xmlns="http://www.w3.org/2000/svg">
<path d="M17.5435 7.04126C16.5023 6.57282 15.4088 6.20813 14.2635 6C14.1072 6.26032 13.951 6.57282 13.8469 6.83314C12.5972 6.67688 11.4 6.67688 10.2025 6.83314C10.0462 6.57282 9.88999 6.26032 9.73405 6C8.58872 6.20813 7.49527 6.52063 6.454 7.04126C4.37085 10.1129 3.79834 13.1326 4.05866 16.1004C5.4643 17.0898 6.76619 17.7145 8.11965 18.1311C8.43215 17.7145 8.74435 17.2461 9.00466 16.7255C8.53622 16.5692 8.06746 16.3089 7.65089 16.0486C7.75496 15.9445 7.85902 15.8923 7.9634 15.7883C10.6187 16.9858 13.4303 16.9858 16.0335 15.7883C16.1376 15.8923 16.2416 15.9445 16.346 16.0486C15.9294 16.3089 15.461 16.517 14.9922 16.7255C15.2526 17.1939 15.5129 17.6627 15.8773 18.1311C17.1788 17.7145 18.5326 17.0898 19.9382 16.1004C20.2507 12.6642 19.3657 9.64442 17.5435 7.04126ZM9.36904 14.226C8.58809 14.226 7.91121 13.4973 7.91121 12.612C7.91121 11.7266 8.5359 10.9979 9.36904 10.9979C10.15 10.9979 10.8269 11.7266 10.8269 12.612C10.775 13.5492 10.1503 14.226 9.36904 14.226ZM14.6279 14.226C13.8469 14.226 13.17 13.4973 13.17 12.612C13.17 11.7266 13.7947 10.9979 14.6279 10.9979C15.4088 10.9979 16.0857 11.7266 16.0857 12.612C16.0857 13.5492 15.4607 14.226 14.6279 14.226Z" fill="white"/>
</svg>
