<svg width="24" height="24" viewBox="0 0 24 24" fill="none" xmlns="http://www.w3.org/2000/svg">
<path d="M12.0001 4C7.58233 4 4 7.58167 4 12.0001C4 15.5347 6.29226 18.5335 9.47093 19.5913C9.87075 19.6654 10.0175 19.4178 10.0175 19.2065C10.0175 19.0157 10.0101 18.3855 10.0067 17.717C7.78105 18.201 7.31141 16.7731 7.31141 16.7731C6.9475 15.8484 6.42315 15.6025 6.42315 15.6025C5.6973 15.106 6.47786 15.1162 6.47786 15.1162C7.28121 15.1726 7.70421 15.9406 7.70421 15.9406C8.41774 17.1637 9.57572 16.8101 10.0322 16.6057C10.104 16.0886 10.3114 15.7357 10.5402 15.5359C8.76324 15.3336 6.8953 14.6476 6.8953 11.5822C6.8953 10.7088 7.20782 9.99515 7.71958 9.4349C7.63651 9.2334 7.36268 8.41972 7.79708 7.31777C7.79708 7.31777 8.46887 7.10276 9.99766 8.13781C10.6358 7.96055 11.3202 7.87166 12.0001 7.86862C12.6799 7.87166 13.3649 7.96055 14.0042 8.13781C15.5311 7.10276 16.202 7.31777 16.202 7.31777C16.6375 8.41972 16.3635 9.2334 16.2804 9.4349C16.7934 9.99515 17.1038 10.7088 17.1038 11.5822C17.1038 14.6549 15.2323 15.3315 13.4508 15.5295C13.7378 15.7778 13.9935 16.2647 13.9935 17.011C13.9935 18.0815 13.9842 18.943 13.9842 19.2065C13.9842 19.4193 14.1282 19.6688 14.5337 19.5902C17.7107 18.5312 20 15.5335 20 12.0001C20 7.58167 16.4182 4 12.0001 4ZM6.99628 15.3963C6.97867 15.436 6.91614 15.4479 6.85917 15.4206C6.80115 15.3945 6.76856 15.3404 6.78737 15.3005C6.80459 15.2595 6.86725 15.2482 6.92514 15.2756C6.9833 15.3017 7.01642 15.3564 6.99628 15.3963ZM7.3898 15.7474C7.35165 15.7828 7.27706 15.7663 7.22645 15.7104C7.17413 15.6547 7.16432 15.5801 7.20301 15.5442C7.24235 15.5088 7.31468 15.5254 7.36715 15.5811C7.41947 15.6376 7.42968 15.7116 7.3898 15.7474ZM7.65977 16.1966C7.61075 16.2307 7.5306 16.1988 7.48105 16.1276C7.43204 16.0565 7.43204 15.9712 7.48211 15.937C7.53179 15.9028 7.61075 15.9335 7.66096 16.0042C7.70984 16.0765 7.70984 16.1618 7.65977 16.1966ZM8.11633 16.7169C8.07248 16.7653 7.97909 16.7523 7.91073 16.6863C7.84078 16.6218 7.82131 16.5303 7.86529 16.4819C7.90967 16.4334 8.0036 16.4471 8.07248 16.5125C8.1419 16.5769 8.1631 16.6691 8.11633 16.7169ZM8.70641 16.8926C8.68707 16.9553 8.59711 16.9837 8.5065 16.9571C8.41602 16.9297 8.3568 16.8563 8.37508 16.793C8.39389 16.7299 8.48424 16.7002 8.57552 16.7287C8.66587 16.756 8.72522 16.8289 8.70641 16.8926ZM9.37793 16.9671C9.38019 17.0331 9.30335 17.0878 9.20823 17.089C9.11258 17.0911 9.03521 17.0377 9.03415 16.9728C9.03415 16.9062 9.10927 16.852 9.20492 16.8504C9.30004 16.8485 9.37793 16.9015 9.37793 16.9671ZM10.0376 16.9418C10.049 17.0062 9.98292 17.0723 9.88846 17.0899C9.7956 17.1069 9.70962 17.0671 9.69783 17.0033C9.6863 16.9373 9.7536 16.8712 9.84634 16.8541C9.94093 16.8377 10.0256 16.8764 10.0376 16.9418Z" fill="white"/>
</svg>
