<svg width="24" height="24" viewBox="0 0 24 24" fill="none" xmlns="http://www.w3.org/2000/svg">
<path d="M20 12.2535C20 11.2866 19.2161 10.5028 18.2491 10.5028C17.7771 10.5028 17.3496 10.6903 17.0349 10.9939C15.838 10.1303 14.189 9.57262 12.3526 9.50845L13.1501 5.75606L15.7559 6.31012C15.7877 6.97254 16.3301 7.50121 17.0005 7.50121C17.6912 7.50121 18.251 6.94143 18.251 6.2506C18.251 5.55997 17.6912 5 17.0006 5C16.5091 5 16.0883 5.28595 15.8839 5.6981L12.9741 5.07968C12.893 5.06249 12.8084 5.07819 12.7389 5.12331C12.6694 5.16844 12.6206 5.23931 12.6033 5.32036L11.7128 9.50738C9.8493 9.55915 8.17385 10.1176 6.96163 10.9908C6.64718 10.6891 6.22108 10.5028 5.75096 10.5028C4.78407 10.5028 4 11.2866 4 12.2535C4 12.965 4.42514 13.5761 5.03454 13.85C5.00702 14.0252 4.99306 14.2022 4.99277 14.3795C4.99277 17.0732 8.12819 19.2569 11.996 19.2569C15.8641 19.2569 18.9995 17.0732 18.9995 14.3795C18.9995 14.2017 18.9849 14.0264 18.9584 13.8535C19.5716 13.5811 20 12.9678 20 12.2535Z" fill="white"/>
</svg>
