<?xml version="1.0" encoding="UTF-8"?>
<svg xmlns="http://www.w3.org/2000/svg" xmlns:xlink="http://www.w3.org/1999/xlink" width="420px" height="72px" viewBox="0 0 420 72" version="1.1">
<g id="surface1">
<path style=" stroke:none;fill-rule:nonzero;fill:rgb(100%,100%,100%);fill-opacity:1;" d="M 26.34375 0 L 24.511719 5.621094 C 22.511719 6.457031 20.515625 7.296875 18.515625 8.132812 C 16.398438 7.703125 14.273438 7.199219 12.125 6.949219 C 11.785156 7.320312 3.207031 20.117188 3.207031 20.25 C 3.601562 21.1875 4.28125 21.996094 4.796875 22.875 L 36 33.503906 L 67.203125 22.875 C 67.71875 21.996094 68.398438 21.1875 68.792969 20.25 C 68.792969 20.117188 60.214844 7.320312 59.875 6.949219 C 57.726562 7.199219 55.601562 7.703125 53.484375 8.132812 C 51.484375 7.296875 49.488281 6.457031 47.488281 5.621094 L 45.65625 0 Z M 7.171875 26.738281 C 7.132812 26.726562 7.054688 26.785156 7.054688 26.804688 C 6.675781 29.777344 5.941406 35.722656 5.941406 35.722656 L 7.84375 43.695312 L 22.226562 50.03125 L 36 45.039062 L 49.773438 50.03125 L 64.15625 43.695312 L 66.058594 35.722656 C 66.058594 35.722656 65.324219 29.777344 64.945312 26.804688 C 64.945312 26.777344 64.804688 26.6875 64.804688 26.777344 C 55.390625 30.027344 45.566406 33.167969 36 36.371094 C 26.433594 33.167969 16.609375 30.027344 7.191406 26.777344 C 7.191406 26.753906 7.183594 26.742188 7.171875 26.738281 Z M 14.40625 33.84375 C 18.925781 35.355469 23.480469 36.859375 28.035156 38.359375 C 27.964844 38.820312 27.851562 39.277344 27.6875 39.71875 C 27.015625 41.488281 25.644531 42.925781 23.878906 43.714844 C 22.113281 44.503906 20.09375 44.578125 18.269531 43.925781 C 16.445312 43.273438 14.960938 41.941406 14.148438 40.230469 C 13.335938 38.515625 13.257812 36.558594 13.929688 34.789062 C 14.066406 34.464844 14.222656 34.148438 14.40625 33.84375 Z M 57.59375 33.84375 C 57.777344 34.148438 57.933594 34.464844 58.070312 34.789062 C 58.742188 36.558594 58.664062 38.515625 57.851562 40.230469 C 57.039062 41.941406 55.554688 43.273438 53.730469 43.925781 C 51.90625 44.578125 49.886719 44.503906 48.121094 43.714844 C 46.355469 42.925781 44.984375 41.488281 44.3125 39.71875 C 44.148438 39.277344 44.035156 38.820312 43.964844 38.359375 C 48.519531 36.859375 53.074219 35.355469 57.59375 33.84375 Z M 3.453125 38.890625 L 0 42.210938 L 5.175781 59.804688 L 21.53125 66.3125 L 20.648438 52.625 L 5.140625 45.625 Z M 68.546875 38.890625 L 66.859375 45.625 L 51.351562 52.625 L 50.46875 66.3125 L 66.824219 59.804688 L 72 42.210938 Z M 36 47.953125 L 23.734375 52.660156 L 24.480469 67.449219 L 36 72 L 47.519531 67.449219 L 48.265625 52.660156 Z M 36 47.953125 "/>
<path style=" stroke:none;fill-rule:nonzero;fill:rgb(100%,100%,100%);fill-opacity:1;" d="M 99.617188 54 L 99.617188 17.929688 L 115.117188 17.929688 C 119.578125 17.929688 122.980469 18.863281 125.320312 20.734375 C 127.699219 22.609375 128.886719 25.414062 128.886719 29.160156 C 128.886719 32.148438 128.148438 34.507812 126.671875 36.234375 C 125.195312 37.925781 123.070312 39.097656 120.300781 39.742188 L 130.722656 54 L 121.488281 54 L 112.09375 40.339844 L 107.503906 40.339844 L 107.503906 54 Z M 107.503906 34.128906 L 113.820312 34.128906 C 116.304688 34.128906 118.105469 33.75 119.21875 32.992188 C 120.371094 32.203125 120.949219 30.941406 120.949219 29.214844 C 120.949219 27.449219 120.390625 26.191406 119.273438 25.433594 C 118.15625 24.640625 116.339844 24.246094 113.820312 24.246094 L 107.503906 24.246094 Z M 146.136719 54.539062 C 143.511719 54.539062 141.117188 54.054688 138.957031 53.082031 C 136.796875 52.074219 135.066406 50.597656 133.773438 48.652344 C 132.476562 46.675781 131.828125 44.226562 131.828125 41.308594 C 131.828125 38.609375 132.421875 36.269531 133.609375 34.289062 C 134.796875 32.308594 136.398438 30.78125 138.417969 29.699219 C 140.433594 28.621094 142.699219 28.078125 145.21875 28.078125 C 147.777344 28.078125 150.007812 28.546875 151.917969 29.484375 C 153.859375 30.421875 155.371094 31.734375 156.453125 33.425781 C 157.53125 35.082031 158.070312 36.988281 158.070312 39.148438 C 158.070312 39.796875 157.980469 40.519531 157.800781 41.308594 C 157.621094 42.066406 157.386719 42.714844 157.101562 43.253906 L 139.441406 43.253906 C 139.621094 44.40625 140.019531 45.378906 140.628906 46.171875 C 141.242188 46.925781 142.089844 47.503906 143.167969 47.898438 C 144.25 48.292969 145.488281 48.492188 146.894531 48.492188 C 148.371094 48.492188 149.757812 48.277344 151.050781 47.84375 C 152.347656 47.375 153.570312 46.765625 154.722656 46.007812 L 156.992188 51.246094 C 155.445312 52.324219 153.753906 53.152344 151.917969 53.730469 C 150.117188 54.269531 148.191406 54.539062 146.136719 54.539062 Z M 139.441406 38.394531 L 150.402344 38.394531 C 150.441406 38.320312 150.457031 38.25 150.457031 38.179688 C 150.457031 38.105469 150.457031 37.996094 150.457031 37.855469 C 150.457031 37.027344 150.277344 36.324219 149.917969 35.746094 C 149.558594 35.136719 149 34.667969 148.242188 34.34375 C 147.523438 33.984375 146.589844 33.804688 145.4375 33.804688 C 144.390625 33.804688 143.4375 34.003906 142.574219 34.398438 C 141.746094 34.757812 141.0625 35.28125 140.523438 35.964844 C 139.980469 36.648438 139.621094 37.457031 139.441406 38.394531 Z M 173.113281 54.539062 C 170.847656 54.539062 168.796875 54.019531 166.960938 52.972656 C 165.121094 51.894531 163.664062 50.363281 162.585938 48.382812 C 161.503906 46.367188 160.964844 44.011719 160.964844 41.308594 C 160.964844 38.574219 161.503906 36.214844 162.585938 34.234375 C 163.664062 32.257812 165.121094 30.742188 166.960938 29.699219 C 168.796875 28.621094 170.847656 28.078125 173.113281 28.078125 C 174.84375 28.078125 176.355469 28.386719 177.652344 28.996094 C 178.945312 29.574219 179.992188 30.367188 180.78125 31.375 L 180.78125 17.929688 L 188.289062 17.929688 L 188.289062 54 L 181.214844 54 L 181.214844 50.761719 C 180.421875 51.910156 179.324219 52.828125 177.921875 53.515625 C 176.554688 54.199219 174.949219 54.539062 173.113281 54.539062 Z M 174.84375 48.058594 C 176.101562 48.058594 177.199219 47.789062 178.136719 47.25 C 179.074219 46.710938 179.8125 45.9375 180.351562 44.929688 C 180.890625 43.882812 181.160156 42.679688 181.160156 41.308594 C 181.160156 39.90625 180.890625 38.699219 180.351562 37.691406 C 179.8125 36.683594 179.074219 35.910156 178.136719 35.371094 C 177.199219 34.828125 176.101562 34.558594 174.84375 34.558594 C 173.617188 34.558594 172.519531 34.828125 171.550781 35.371094 C 170.613281 35.910156 169.875 36.683594 169.335938 37.691406 C 168.832031 38.699219 168.578125 39.90625 168.578125 41.308594 C 168.578125 42.679688 168.832031 43.882812 169.335938 44.929688 C 169.875 45.9375 170.613281 46.710938 171.550781 47.25 C 172.519531 47.789062 173.617188 48.058594 174.84375 48.058594 Z M 206.300781 54.539062 C 203.601562 54.539062 201.1875 54 199.066406 52.921875 C 196.976562 51.804688 195.339844 50.257812 194.152344 48.277344 C 192.964844 46.261719 192.371094 43.9375 192.371094 41.308594 C 192.371094 38.644531 192.964844 36.324219 194.152344 34.34375 C 195.339844 32.363281 196.976562 30.835938 199.066406 29.753906 C 201.152344 28.636719 203.566406 28.078125 206.300781 28.078125 C 209.039062 28.078125 211.449219 28.636719 213.539062 29.753906 C 215.625 30.835938 217.261719 32.363281 218.453125 34.34375 C 219.640625 36.324219 220.234375 38.644531 220.234375 41.308594 C 220.234375 43.9375 219.640625 46.261719 218.453125 48.277344 C 217.261719 50.257812 215.625 51.804688 213.539062 52.921875 C 211.449219 54 209.039062 54.539062 206.300781 54.539062 Z M 206.300781 48.058594 C 207.5625 48.058594 208.660156 47.789062 209.59375 47.25 C 210.566406 46.710938 211.304688 45.9375 211.808594 44.929688 C 212.347656 43.882812 212.621094 42.679688 212.621094 41.308594 C 212.621094 39.90625 212.347656 38.699219 211.808594 37.691406 C 211.304688 36.683594 210.566406 35.910156 209.59375 35.371094 C 208.660156 34.828125 207.5625 34.558594 206.300781 34.558594 C 205.042969 34.558594 203.925781 34.828125 202.953125 35.371094 C 202.015625 35.910156 201.28125 36.683594 200.738281 37.691406 C 200.234375 38.699219 199.984375 39.90625 199.984375 41.308594 C 199.984375 42.679688 200.234375 43.882812 200.738281 44.929688 C 201.28125 45.9375 202.015625 46.710938 202.953125 47.25 C 203.925781 47.789062 205.042969 48.058594 206.300781 48.058594 Z M 236.261719 54.324219 C 233.09375 54.324219 230.808594 53.640625 229.40625 52.273438 C 228.035156 50.902344 227.351562 48.796875 227.351562 45.953125 L 227.351562 34.722656 L 222.222656 34.722656 L 222.222656 28.621094 L 227.351562 28.621094 L 227.351562 21.382812 L 234.859375 21.382812 L 234.859375 28.621094 L 241.015625 28.621094 L 241.015625 34.722656 L 234.859375 34.722656 L 234.859375 45.199219 C 234.859375 46.207031 235.109375 46.960938 235.613281 47.464844 C 236.15625 47.96875 236.929688 48.222656 237.9375 48.222656 C 238.367188 48.222656 238.890625 48.203125 239.503906 48.167969 C 240.113281 48.132812 240.617188 48.078125 241.015625 48.007812 L 241.015625 53.785156 C 240.402344 53.964844 239.664062 54.089844 238.800781 54.160156 C 237.972656 54.269531 237.125 54.324219 236.261719 54.324219 Z M 256.824219 54 L 256.824219 17.929688 L 283.070312 17.929688 L 283.070312 24.570312 L 264.710938 24.570312 L 264.710938 32.292969 L 281.449219 32.292969 L 281.449219 38.554688 L 264.710938 38.554688 L 264.710938 47.359375 L 283.070312 47.359375 L 283.070312 54 Z M 287.746094 54 L 287.746094 28.621094 L 294.820312 28.621094 L 294.820312 31.699219 C 295.613281 30.582031 296.65625 29.699219 297.953125 29.050781 C 299.25 28.402344 300.867188 28.078125 302.8125 28.078125 C 305.65625 28.078125 307.90625 28.90625 309.5625 30.5625 C 311.21875 32.183594 312.046875 34.703125 312.046875 38.125 L 312.046875 54 L 304.59375 54 L 304.59375 39.257812 C 304.59375 37.675781 304.25 36.503906 303.566406 35.746094 C 302.917969 34.957031 301.894531 34.558594 300.488281 34.558594 C 298.871094 34.558594 297.574219 35.101562 296.601562 36.179688 C 295.667969 37.222656 295.199219 38.753906 295.199219 40.769531 L 295.199219 54 Z M 329.128906 64.367188 C 326.929688 64.367188 324.859375 64.042969 322.917969 63.394531 C 320.972656 62.785156 319.117188 61.8125 317.355469 60.480469 L 319.675781 55.027344 C 321.367188 56.140625 322.972656 56.933594 324.484375 57.402344 C 325.996094 57.871094 327.433594 58.105469 328.804688 58.105469 C 331.035156 58.105469 332.800781 57.546875 334.09375 56.429688 C 335.390625 55.3125 336.039062 53.675781 336.039062 51.515625 L 336.039062 49.734375 C 335.246094 50.671875 334.203125 51.445312 332.90625 52.054688 C 331.648438 52.632812 330.136719 52.921875 328.371094 52.921875 C 326.28125 52.921875 324.304688 52.453125 322.429688 51.515625 C 320.59375 50.542969 319.101562 49.140625 317.949219 47.304688 C 316.796875 45.433594 316.222656 43.164062 316.222656 40.5 C 316.222656 37.835938 316.796875 35.585938 317.949219 33.75 C 319.101562 31.878906 320.59375 30.472656 322.429688 29.539062 C 324.304688 28.566406 326.28125 28.078125 328.371094 28.078125 C 330.277344 28.078125 331.898438 28.421875 333.230469 29.105469 C 334.597656 29.789062 335.679688 30.652344 336.472656 31.699219 L 336.472656 28.621094 L 343.546875 28.621094 L 343.546875 50.21875 C 343.546875 53.28125 342.949219 55.855469 341.761719 57.941406 C 340.574219 60.066406 338.917969 61.667969 336.796875 62.746094 C 334.671875 63.828125 332.113281 64.367188 329.128906 64.367188 Z M 330.097656 46.765625 C 331.324219 46.765625 332.402344 46.53125 333.339844 46.0625 C 334.273438 45.558594 335.011719 44.839844 335.554688 43.902344 C 336.09375 42.964844 336.363281 41.832031 336.363281 40.5 C 336.363281 39.167969 336.09375 38.035156 335.554688 37.097656 C 335.011719 36.160156 334.273438 35.460938 333.339844 34.992188 C 332.402344 34.488281 331.324219 34.234375 330.097656 34.234375 C 328.910156 34.234375 327.832031 34.488281 326.859375 34.992188 C 325.921875 35.460938 325.183594 36.160156 324.644531 37.097656 C 324.105469 38.035156 323.835938 39.167969 323.835938 40.5 C 323.835938 41.832031 324.105469 42.964844 324.644531 43.902344 C 325.183594 44.839844 325.921875 45.558594 326.859375 46.0625 C 327.832031 46.53125 328.910156 46.765625 330.097656 46.765625 Z M 348.867188 54 L 348.867188 28.621094 L 356.320312 28.621094 L 356.320312 54 Z M 352.59375 24.730469 C 351.261719 24.730469 350.21875 24.355469 349.460938 23.597656 C 348.703125 22.804688 348.328125 21.816406 348.328125 20.628906 C 348.328125 19.441406 348.703125 18.46875 349.460938 17.710938 C 350.21875 16.957031 351.261719 16.578125 352.59375 16.578125 C 353.890625 16.578125 354.914062 16.972656 355.671875 17.765625 C 356.464844 18.523438 356.859375 19.492188 356.859375 20.683594 C 356.859375 21.871094 356.464844 22.84375 355.671875 23.597656 C 354.914062 24.355469 353.890625 24.730469 352.59375 24.730469 Z M 361.710938 54 L 361.710938 28.621094 L 368.785156 28.621094 L 368.785156 31.699219 C 369.574219 30.582031 370.621094 29.699219 371.914062 29.050781 C 373.210938 28.402344 374.832031 28.078125 376.777344 28.078125 C 379.621094 28.078125 381.871094 28.90625 383.527344 30.5625 C 385.183594 32.183594 386.011719 34.703125 386.011719 38.125 L 386.011719 54 L 378.558594 54 L 378.558594 39.257812 C 378.558594 37.675781 378.214844 36.503906 377.53125 35.746094 C 376.882812 34.957031 375.859375 34.558594 374.453125 34.558594 C 372.835938 34.558594 371.539062 35.101562 370.566406 36.179688 C 369.628906 37.222656 369.160156 38.753906 369.160156 40.769531 L 369.160156 54 Z M 404.492188 54.539062 C 401.863281 54.539062 399.472656 54.054688 397.3125 53.082031 C 395.152344 52.074219 393.421875 50.597656 392.128906 48.652344 C 390.832031 46.675781 390.183594 44.226562 390.183594 41.308594 C 390.183594 38.609375 390.777344 36.269531 391.964844 34.289062 C 393.152344 32.308594 394.753906 30.78125 396.769531 29.699219 C 398.785156 28.621094 401.054688 28.078125 403.574219 28.078125 C 406.132812 28.078125 408.363281 28.546875 410.269531 29.484375 C 412.214844 30.421875 413.726562 31.734375 414.808594 33.425781 C 415.886719 35.082031 416.425781 36.988281 416.425781 39.148438 C 416.425781 39.796875 416.335938 40.519531 416.15625 41.308594 C 415.976562 42.066406 415.742188 42.714844 415.453125 43.253906 L 397.796875 43.253906 C 397.976562 44.40625 398.371094 45.378906 398.984375 46.171875 C 399.597656 46.925781 400.441406 47.503906 401.523438 47.898438 C 402.601562 48.292969 403.84375 48.492188 405.25 48.492188 C 406.726562 48.492188 408.109375 48.277344 409.40625 47.84375 C 410.703125 47.375 411.925781 46.765625 413.078125 46.007812 L 415.347656 51.246094 C 413.800781 52.324219 412.105469 53.152344 410.269531 53.730469 C 408.472656 54.269531 406.546875 54.539062 404.492188 54.539062 Z M 397.796875 38.394531 L 408.757812 38.394531 C 408.796875 38.320312 408.8125 38.25 408.8125 38.179688 C 408.8125 38.105469 408.8125 37.996094 408.8125 37.855469 C 408.8125 37.027344 408.632812 36.324219 408.273438 35.746094 C 407.914062 35.136719 407.355469 34.667969 406.597656 34.34375 C 405.878906 33.984375 404.941406 33.804688 403.789062 33.804688 C 402.746094 33.804688 401.792969 34.003906 400.929688 34.398438 C 400.101562 34.757812 399.417969 35.28125 398.878906 35.964844 C 398.335938 36.648438 397.976562 37.457031 397.796875 38.394531 Z M 397.796875 38.394531 "/>
</g>
</svg>
