<svg width="140" height="24" viewBox="0 0 140 24" fill="none" xmlns="http://www.w3.org/2000/svg">
<path d="M8.78135 0L8.16997 1.87339C7.50402 2.15272 6.83806 2.43205 6.1722 2.71157C5.46566 2.56726 4.75733 2.40008 4.04136 2.31633C3.92833 2.43969 1.06859 6.70545 1.06939 6.74952C1.20115 7.06243 1.42741 7.33161 1.59855 7.62443L12 11.1681L22.4015 7.62443C22.5726 7.33161 22.7989 7.06243 22.9306 6.74952C22.9312 6.70545 20.0717 2.43969 19.9586 2.31633C19.2427 2.40008 18.5344 2.56726 17.8278 2.71157C17.1619 2.43205 16.496 2.15272 15.83 1.87339L15.2187 0H8.78135ZM2.39071 8.91326C2.37783 8.90942 2.35189 8.92806 2.35093 8.93436C2.22564 9.92518 1.98079 11.9075 1.98079 11.9075L2.61457 14.5649L7.40938 16.6777L12 15.0127L16.5906 16.6777L21.3854 14.5649L22.0192 11.9075C22.0192 11.9075 21.7743 9.92518 21.649 8.93436C21.6479 8.92592 21.6021 8.89534 21.6021 8.92625C18.4632 10.0085 15.189 11.0565 11.9999 12.124C8.81087 11.0565 5.53665 10.0085 2.39777 8.92625C2.39777 8.91852 2.395 8.91463 2.39071 8.91326ZM4.80213 11.2817C6.30809 11.7856 7.82638 12.2859 9.34461 12.7862C9.32177 12.9406 9.2833 13.0923 9.22974 13.2393C9.00515 13.8291 8.54817 14.3082 7.95931 14.5713C7.37045 14.8343 6.69796 14.8597 6.08976 14.642C5.48157 14.4242 4.9875 13.981 4.71625 13.41C4.44499 12.839 4.41876 12.1868 4.64333 11.597C4.68816 11.4883 4.74124 11.3829 4.80213 11.2817ZM19.1979 11.2817C19.2588 11.3829 19.3118 11.4883 19.3567 11.597C19.5812 12.1868 19.555 12.839 19.2838 13.41C19.0125 13.981 18.5184 14.4242 17.9102 14.642C17.302 14.8597 16.6295 14.8343 16.0407 14.5713C15.4518 14.3082 14.9948 13.8291 14.7703 13.2393C14.7167 13.0923 14.6782 12.9406 14.6554 12.7862C16.1736 12.2859 17.6919 11.7856 19.1979 11.2817ZM1.15142 12.9636L0 14.07L1.72493 19.9355L7.17673 22.1041L6.88339 17.5412L1.71321 15.2081L1.15142 12.9636ZM22.8486 12.9636L22.2868 15.2081L17.1166 17.5412L16.8233 22.1041L22.2751 19.9355L24 14.07L22.8486 12.9636ZM12 15.9848L7.91178 17.5538L8.15993 22.4829L12 24L15.8401 22.4829L16.0882 17.5538L12 15.9848Z" fill="white"/>
<path d="M33.206 18V5.976H38.372C39.86 5.976 40.994 6.288 41.774 6.912C42.566 7.536 42.962 8.472 42.962 9.72C42.962 10.716 42.716 11.502 42.224 12.078C41.732 12.642 41.024 13.032 40.1 13.248L43.574 18H40.496L37.364 13.446H35.834V18H33.206ZM35.834 11.376H37.94C38.768 11.376 39.368 11.25 39.74 10.998C40.124 10.734 40.316 10.314 40.316 9.738C40.316 9.15 40.13 8.73 39.758 8.478C39.386 8.214 38.78 8.082 37.94 8.082H35.834V11.376ZM48.7127 18.18C47.8367 18.18 47.0387 18.018 46.3187 17.694C45.5987 17.358 45.0227 16.866 44.5907 16.218C44.1587 15.558 43.9427 14.742 43.9427 13.77C43.9427 12.87 44.1407 12.09 44.5367 11.43C44.9327 10.77 45.4667 10.26 46.1387 9.9C46.8107 9.54 47.5667 9.36 48.4067 9.36C49.2587 9.36 50.0027 9.516 50.6387 9.828C51.2867 10.14 51.7907 10.578 52.1507 11.142C52.5107 11.694 52.6907 12.33 52.6907 13.05C52.6907 13.266 52.6607 13.506 52.6007 13.77C52.5407 14.022 52.4627 14.238 52.3667 14.418H46.4807C46.5407 14.802 46.6727 15.126 46.8767 15.39C47.0807 15.642 47.3627 15.834 47.7227 15.966C48.0827 16.098 48.4967 16.164 48.9647 16.164C49.4567 16.164 49.9187 16.092 50.3507 15.948C50.7827 15.792 51.1907 15.588 51.5747 15.336L52.3307 17.082C51.8147 17.442 51.2507 17.718 50.6387 17.91C50.0387 18.09 49.3967 18.18 48.7127 18.18ZM46.4807 12.798H50.1347C50.1467 12.774 50.1527 12.75 50.1527 12.726C50.1527 12.702 50.1527 12.666 50.1527 12.618C50.1527 12.342 50.0927 12.108 49.9727 11.916C49.8527 11.712 49.6667 11.556 49.4147 11.448C49.1747 11.328 48.8627 11.268 48.4787 11.268C48.1307 11.268 47.8127 11.334 47.5247 11.466C47.2487 11.586 47.0207 11.76 46.8407 11.988C46.6607 12.216 46.5407 12.486 46.4807 12.798ZM57.705 18.18C56.949 18.18 56.265 18.006 55.653 17.658C55.041 17.298 54.555 16.788 54.195 16.128C53.835 15.456 53.655 14.67 53.655 13.77C53.655 12.858 53.835 12.072 54.195 11.412C54.555 10.752 55.041 10.248 55.653 9.9C56.265 9.54 56.949 9.36 57.705 9.36C58.281 9.36 58.785 9.462 59.217 9.666C59.649 9.858 59.997 10.122 60.261 10.458V5.976H62.763V18H60.405V16.92C60.141 17.304 59.775 17.61 59.307 17.838C58.851 18.066 58.317 18.18 57.705 18.18ZM58.281 16.02C58.701 16.02 59.067 15.93 59.379 15.75C59.691 15.57 59.937 15.312 60.117 14.976C60.297 14.628 60.387 14.226 60.387 13.77C60.387 13.302 60.297 12.9 60.117 12.564C59.937 12.228 59.691 11.97 59.379 11.79C59.067 11.61 58.701 11.52 58.281 11.52C57.873 11.52 57.507 11.61 57.183 11.79C56.871 11.97 56.625 12.228 56.445 12.564C56.277 12.9 56.193 13.302 56.193 13.77C56.193 14.226 56.277 14.628 56.445 14.976C56.625 15.312 56.871 15.57 57.183 15.75C57.507 15.93 57.873 16.02 58.281 16.02ZM68.7671 18.18C67.8671 18.18 67.0631 18 66.3551 17.64C65.6591 17.268 65.1131 16.752 64.7171 16.092C64.3211 15.42 64.1231 14.646 64.1231 13.77C64.1231 12.882 64.3211 12.108 64.7171 11.448C65.1131 10.788 65.6591 10.278 66.3551 9.918C67.0511 9.546 67.8551 9.36 68.7671 9.36C69.6791 9.36 70.4831 9.546 71.1791 9.918C71.8751 10.278 72.4211 10.788 72.8171 11.448C73.2131 12.108 73.4111 12.882 73.4111 13.77C73.4111 14.646 73.2131 15.42 72.8171 16.092C72.4211 16.752 71.8751 17.268 71.1791 17.64C70.4831 18 69.6791 18.18 68.7671 18.18ZM68.7671 16.02C69.1871 16.02 69.5531 15.93 69.8651 15.75C70.1891 15.57 70.4351 15.312 70.6031 14.976C70.7831 14.628 70.8731 14.226 70.8731 13.77C70.8731 13.302 70.7831 12.9 70.6031 12.564C70.4351 12.228 70.1891 11.97 69.8651 11.79C69.5531 11.61 69.1871 11.52 68.7671 11.52C68.3471 11.52 67.9751 11.61 67.6511 11.79C67.3391 11.97 67.0931 12.228 66.9131 12.564C66.7451 12.9 66.6611 13.302 66.6611 13.77C66.6611 14.226 66.7451 14.628 66.9131 14.976C67.0931 15.312 67.3391 15.57 67.6511 15.75C67.9751 15.93 68.3471 16.02 68.7671 16.02ZM78.7543 18.108C77.6983 18.108 76.9363 17.88 76.4683 17.424C76.0123 16.968 75.7843 16.266 75.7843 15.318V11.574H74.0743V9.54H75.7843V7.128H78.2863V9.54H80.3383V11.574H78.2863V15.066C78.2863 15.402 78.3703 15.654 78.5383 15.822C78.7183 15.99 78.9763 16.074 79.3123 16.074C79.4563 16.074 79.6303 16.068 79.8343 16.056C80.0383 16.044 80.2063 16.026 80.3383 16.002V17.928C80.1343 17.988 79.8883 18.03 79.6003 18.054C79.3243 18.09 79.0423 18.108 78.7543 18.108ZM85.6085 18V5.976H94.3565V8.19H88.2365V10.764H93.8165V12.852H88.2365V15.786H94.3565V18H85.6085ZM95.9155 18V9.54H98.2735V10.566C98.5375 10.194 98.8855 9.9 99.3175 9.684C99.7495 9.468 100.289 9.36 100.937 9.36C101.885 9.36 102.635 9.636 103.187 10.188C103.739 10.728 104.015 11.568 104.015 12.708V18H101.531V13.086C101.531 12.558 101.417 12.168 101.189 11.916C100.973 11.652 100.631 11.52 100.163 11.52C99.6235 11.52 99.1915 11.7 98.8675 12.06C98.5555 12.408 98.3995 12.918 98.3995 13.59V18H95.9155ZM109.709 21.456C108.977 21.456 108.287 21.348 107.639 21.132C106.991 20.928 106.373 20.604 105.785 20.16L106.559 18.342C107.123 18.714 107.657 18.978 108.161 19.134C108.665 19.29 109.145 19.368 109.601 19.368C110.345 19.368 110.933 19.182 111.365 18.81C111.797 18.438 112.013 17.892 112.013 17.172V16.578C111.749 16.89 111.401 17.148 110.969 17.352C110.549 17.544 110.045 17.64 109.457 17.64C108.761 17.64 108.101 17.484 107.477 17.172C106.865 16.848 106.367 16.38 105.983 15.768C105.599 15.144 105.407 14.388 105.407 13.5C105.407 12.612 105.599 11.862 105.983 11.25C106.367 10.626 106.865 10.158 107.477 9.846C108.101 9.522 108.761 9.36 109.457 9.36C110.093 9.36 110.633 9.474 111.077 9.702C111.533 9.93 111.893 10.218 112.157 10.566V9.54H114.515V16.74C114.515 17.76 114.317 18.618 113.921 19.314C113.525 20.022 112.973 20.556 112.265 20.916C111.557 21.276 110.705 21.456 109.709 21.456ZM110.033 15.588C110.441 15.588 110.801 15.51 111.113 15.354C111.425 15.186 111.671 14.946 111.851 14.634C112.031 14.322 112.121 13.944 112.121 13.5C112.121 13.056 112.031 12.678 111.851 12.366C111.671 12.054 111.425 11.82 111.113 11.664C110.801 11.496 110.441 11.412 110.033 11.412C109.637 11.412 109.277 11.496 108.953 11.664C108.641 11.82 108.395 12.054 108.215 12.366C108.035 12.678 107.945 13.056 107.945 13.5C107.945 13.944 108.035 14.322 108.215 14.634C108.395 14.946 108.641 15.186 108.953 15.354C109.277 15.51 109.637 15.588 110.033 15.588ZM116.289 18V9.54H118.773V18H116.289ZM117.531 8.244C117.087 8.244 116.739 8.118 116.487 7.866C116.235 7.602 116.109 7.272 116.109 6.876C116.109 6.48 116.235 6.156 116.487 5.904C116.739 5.652 117.087 5.526 117.531 5.526C117.963 5.526 118.305 5.658 118.557 5.922C118.821 6.174 118.953 6.498 118.953 6.894C118.953 7.29 118.821 7.614 118.557 7.866C118.305 8.118 117.963 8.244 117.531 8.244ZM120.57 18V9.54H122.928V10.566C123.192 10.194 123.54 9.9 123.972 9.684C124.404 9.468 124.944 9.36 125.592 9.36C126.54 9.36 127.29 9.636 127.842 10.188C128.394 10.728 128.67 11.568 128.67 12.708V18H126.186V13.086C126.186 12.558 126.072 12.168 125.844 11.916C125.628 11.652 125.286 11.52 124.818 11.52C124.278 11.52 123.846 11.7 123.522 12.06C123.21 12.408 123.054 12.918 123.054 13.59V18H120.57ZM134.831 18.18C133.955 18.18 133.157 18.018 132.437 17.694C131.717 17.358 131.141 16.866 130.709 16.218C130.277 15.558 130.061 14.742 130.061 13.77C130.061 12.87 130.259 12.09 130.655 11.43C131.051 10.77 131.585 10.26 132.257 9.9C132.929 9.54 133.685 9.36 134.525 9.36C135.377 9.36 136.121 9.516 136.757 9.828C137.405 10.14 137.909 10.578 138.269 11.142C138.629 11.694 138.809 12.33 138.809 13.05C138.809 13.266 138.779 13.506 138.719 13.77C138.659 14.022 138.581 14.238 138.485 14.418H132.599C132.659 14.802 132.791 15.126 132.995 15.39C133.199 15.642 133.481 15.834 133.841 15.966C134.201 16.098 134.615 16.164 135.083 16.164C135.575 16.164 136.037 16.092 136.469 15.948C136.901 15.792 137.309 15.588 137.693 15.336L138.449 17.082C137.933 17.442 137.369 17.718 136.757 17.91C136.157 18.09 135.515 18.18 134.831 18.18ZM132.599 12.798H136.253C136.265 12.774 136.271 12.75 136.271 12.726C136.271 12.702 136.271 12.666 136.271 12.618C136.271 12.342 136.211 12.108 136.091 11.916C135.971 11.712 135.785 11.556 135.533 11.448C135.293 11.328 134.981 11.268 134.597 11.268C134.249 11.268 133.931 11.334 133.643 11.466C133.367 11.586 133.139 11.76 132.959 11.988C132.779 12.216 132.659 12.486 132.599 12.798Z" fill="white"/>
</svg>
